<svg id="Capa_1" enable-background="new 0 0 512 512" height="512" viewBox="0 0 512 512" width="512" xmlns="http://www.w3.org/2000/svg"><g><path d="m300.942 66.451-45 20.865-105 48.684-61 120 91 150 30 39.549c14.473 3.439 29.491 6.451 45 6.451 38.668 0 74.652-12.453 105-31.947l84.549-209.053c-16.958-71.391-73.158-127.591-144.549-144.549z" fill="#a9f0f0"/><path d="m445.491 211c-16.957-71.391-73.158-127.592-144.549-144.549l-45 20.865v364.684c38.668 0 74.652-12.453 105-31.947z" fill="#64dde0"/><g fill="#e4f1fb"><path d="m13.198 240.883c8.567.996 15.745-5.066 16.743-13.022 2.549-20.332 10.624-40.21 18.593-59.106 3.223-7.632-.352-16.436-7.983-19.644-7.617-3.208-16.421.352-19.644 7.983-9.053 21.431-17.846 43.975-20.731 67.046-1.025 8.218 4.79 15.718 13.022 16.743z"/><path d="m76.747 120.092c12.407-16.318 26.968-30.879 43.286-43.286 6.592-5.01 7.866-14.414 2.856-21.021-4.995-6.592-14.385-7.866-21.021-2.856-18.47 14.033-34.964 30.527-48.998 48.999-5.01 6.606-3.735 16.011 2.856 21.021 6.706 5.083 16.095 3.638 21.021-2.857z"/><path d="m168.696 48.593c18.896-7.969 38.774-16.186 59.106-18.735 8.218-1.025 14.048-8.525 13.022-16.743-1.025-8.203-8.452-13.916-16.743-13.022-23.071 2.886-45.615 11.821-67.046 20.874-7.632 3.208-11.206 12.012-7.983 19.644 3.242 7.681 12.062 11.19 19.644 7.982z"/></g><path d="m445.491 211h-69.549c-8.291 0-15 6.709-15 15 0 8.276-6.724 15-15 15-3.984 0-7.793 1.582-10.605 4.395l-30 30c-2.813 2.813-4.395 6.621-4.395 10.605 0 24.814 20.186 45 45 45 8.276 0 15 6.724 15 15v74.053c54.036-34.708 91-95.202 91-164.053 0-15.509-3.013-30.527-6.451-45z" fill="#4b925e"/><path d="m287.802.092c-8.35-.894-15.703 4.819-16.743 13.022-1.025 8.218 4.805 15.718 13.022 16.743 112.222 14.063 197.861 112.926 197.861 226.143 0 124.072-101.928 226-226 226-113.218 0-211.938-85.639-226-197.86-1.025-8.218-8.438-13.975-16.743-13.022-8.218 1.025-14.048 8.525-13.022 16.743 15.936 127.207 127.459 224.139 255.765 224.139 140.61 0 256-115.39 256-256 0-128.305-96.933-239.971-224.14-255.908z" fill="#e4f1fb"/><path d="m511.942 256c0-128.306-96.933-239.971-224.14-255.908-8.35-.894-15.703 4.819-16.743 13.022-1.025 8.218 4.805 15.718 13.022 16.743 112.222 14.063 197.861 112.926 197.861 226.143 0 124.072-101.928 226-226 226v30c140.61 0 256-115.389 256-256z" fill="#c9e3f7"/><g><path d="m239.277 161.454-16.661 16.661c-1.848 1.848-4.354 2.886-6.967 2.886h-37.286c-12.012 0-23.32 4.688-31.816 13.184l-21.211 21.211c-2.813 2.813-4.395 6.621-4.395 10.605v30c0 24.814 20.186 45 45 45h30c8.291 0 15-6.709 15-15 0-8.276 6.724-15 15-15 8.284 0 15 6.716 15 15v30c0 3.984 1.582 7.793 4.395 10.605l10.605 10.605v-204.285c-6.837 6.213-11.997 14.273-14.004 23.632-.398 1.86-1.314 3.55-2.66 4.896z" fill="none"/><path d="m255.942 60c-107.52 0-196 88.48-196 196 0 92.01 65.136 169.153 151 189.549v-39.549c0-24.814 20.186-45 45-45 3.988 0 7.581-2.402 9.106-6.085 1.523-3.682.679-7.919-2.139-10.737l-6.967-6.967-10.605-10.605c-2.813-2.813-4.395-6.621-4.395-10.605v-30c0-8.284-6.716-15-15-15-8.276 0-15 6.724-15 15 0 8.291-6.709 15-15 15h-30c-24.814 0-45-20.186-45-45v-30c0-3.984 1.582-7.793 4.395-10.605l21.211-21.211c8.496-8.496 19.805-13.184 31.816-13.184h37.286c2.613 0 5.12-1.038 6.967-2.886l16.661-16.661c1.346-1.346 2.261-3.036 2.661-4.896 2.007-9.359 7.167-17.419 14.004-23.632 7.994-7.267 18.371-11.926 30-11.926 8.276 0 15-6.724 15-15v-39.549c-14.474-3.438-29.492-6.451-45.001-6.451z" fill="#64c37d"/><path d="m285.942 121c8.276 0 15-6.724 15-15v-39.549c-14.473-3.439-29.491-6.451-45-6.451v72.926c7.994-7.267 18.371-11.926 30-11.926z" fill="#4b925e"/></g></g></svg>